<mxfile host="65bd71144e">
    <diagram id="Rqr_Dvhj0riQ0_PxHZDN" name="CasosDeUso">
        <mxGraphModel dx="1042" dy="618" grid="1" gridSize="10" guides="1" tooltips="1" connect="1" arrows="1" fold="1" page="1" pageScale="1" pageWidth="1100" pageHeight="850" math="0" shadow="0">
            <root>
                <mxCell id="0"/>
                <mxCell id="1" parent="0"/>
                <mxCell id="88" style="edgeStyle=none;html=1;dashed=1;startArrow=none;startFill=0;endArrow=open;endFill=0;sourcePerimeterSpacing=0;" parent="1" source="4" target="22" edge="1">
                    <mxGeometry relative="1" as="geometry"/>
                </mxCell>
                <mxCell id="4" value="UC00: Registrar cuenta de usuario" style="rounded=1;whiteSpace=wrap;html=1;" parent="1" vertex="1">
                    <mxGeometry x="170" y="350" width="120" height="60" as="geometry"/>
                </mxCell>
                <mxCell id="8" style="edgeStyle=none;html=1;endArrow=none;endFill=0;" parent="1" source="5" target="4" edge="1">
                    <mxGeometry relative="1" as="geometry"/>
                </mxCell>
                <mxCell id="11" style="edgeStyle=none;html=1;endArrow=none;endFill=0;" parent="1" source="5" target="9" edge="1">
                    <mxGeometry relative="1" as="geometry"/>
                </mxCell>
                <mxCell id="17" style="edgeStyle=none;html=1;endArrow=none;endFill=0;" parent="1" source="5" target="12" edge="1">
                    <mxGeometry relative="1" as="geometry"/>
                </mxCell>
                <mxCell id="64" style="edgeStyle=none;html=1;endArrow=none;endFill=0;sourcePerimeterSpacing=30;startArrow=block;startFill=0;" parent="1" source="5" target="6" edge="1">
                    <mxGeometry relative="1" as="geometry"/>
                </mxCell>
                <mxCell id="5" value="Usuario" style="shape=umlActor;verticalLabelPosition=bottom;verticalAlign=top;html=1;outlineConnect=0;" parent="1" vertex="1">
                    <mxGeometry x="40" y="250" width="30" height="60" as="geometry"/>
                </mxCell>
                <mxCell id="35" style="edgeStyle=none;html=1;endArrow=none;endFill=0;" parent="1" source="6" target="31" edge="1">
                    <mxGeometry relative="1" as="geometry"/>
                </mxCell>
                <mxCell id="45" style="edgeStyle=none;html=1;endArrow=none;endFill=0;" parent="1" source="6" target="43" edge="1">
                    <mxGeometry relative="1" as="geometry"/>
                </mxCell>
                <mxCell id="63" style="edgeStyle=none;html=1;endArrow=none;endFill=0;sourcePerimeterSpacing=30;startArrow=block;startFill=0;" parent="1" source="5" target="7" edge="1">
                    <mxGeometry relative="1" as="geometry">
                        <mxPoint x="55" y="560" as="sourcePoint"/>
                        <Array as="points">
                            <mxPoint x="10" y="470"/>
                            <mxPoint x="10" y="630"/>
                        </Array>
                    </mxGeometry>
                </mxCell>
                <mxCell id="95" style="edgeStyle=none;html=1;startArrow=none;startFill=0;endArrow=none;endFill=0;sourcePerimeterSpacing=0;" parent="1" source="6" target="39" edge="1">
                    <mxGeometry relative="1" as="geometry"/>
                </mxCell>
                <mxCell id="6" value="Corporativo" style="shape=umlActor;verticalLabelPosition=bottom;verticalAlign=top;html=1;outlineConnect=0;" parent="1" vertex="1">
                    <mxGeometry x="40" y="460" width="30" height="60" as="geometry"/>
                </mxCell>
                <mxCell id="51" style="edgeStyle=none;html=1;endArrow=none;endFill=0;" parent="1" source="7" target="37" edge="1">
                    <mxGeometry relative="1" as="geometry"/>
                </mxCell>
                <mxCell id="7" value="Natural" style="shape=umlActor;verticalLabelPosition=bottom;verticalAlign=top;html=1;outlineConnect=0;" parent="1" vertex="1">
                    <mxGeometry x="40" y="710" width="30" height="60" as="geometry"/>
                </mxCell>
                <mxCell id="87" style="edgeStyle=none;html=1;dashed=1;startArrow=none;startFill=0;endArrow=open;endFill=0;sourcePerimeterSpacing=0;" parent="1" source="9" target="15" edge="1">
                    <mxGeometry relative="1" as="geometry"/>
                </mxCell>
                <mxCell id="9" value="UC0: Iniciar sesión" style="rounded=1;whiteSpace=wrap;html=1;" parent="1" vertex="1">
                    <mxGeometry x="170" y="150" width="120" height="60" as="geometry"/>
                </mxCell>
                <mxCell id="12" value="UC00: Ver publicaciones del blog" style="rounded=1;whiteSpace=wrap;html=1;" parent="1" vertex="1">
                    <mxGeometry x="170" y="250" width="120" height="60" as="geometry"/>
                </mxCell>
                <mxCell id="85" style="edgeStyle=none;html=1;dashed=1;startArrow=none;startFill=0;endArrow=open;endFill=0;sourcePerimeterSpacing=0;" parent="1" source="13" target="12" edge="1">
                    <mxGeometry relative="1" as="geometry"/>
                </mxCell>
                <mxCell id="13" value="UC00: Ver publicación específica" style="rounded=1;whiteSpace=wrap;html=1;" parent="1" vertex="1">
                    <mxGeometry x="370" y="250" width="120" height="60" as="geometry"/>
                </mxCell>
                <mxCell id="86" style="edgeStyle=none;html=1;dashed=1;startArrow=none;startFill=0;endArrow=open;endFill=0;sourcePerimeterSpacing=0;" parent="1" source="15" target="13" edge="1">
                    <mxGeometry relative="1" as="geometry"/>
                </mxCell>
                <mxCell id="15" value="UC00: Comentar publicación" style="rounded=1;whiteSpace=wrap;html=1;" parent="1" vertex="1">
                    <mxGeometry x="570" y="250" width="120" height="60" as="geometry"/>
                </mxCell>
                <mxCell id="83" style="edgeStyle=none;html=1;dashed=1;startArrow=none;startFill=0;endArrow=open;endFill=0;sourcePerimeterSpacing=0;" parent="1" source="19" target="9" edge="1">
                    <mxGeometry relative="1" as="geometry"/>
                </mxCell>
                <mxCell id="19" value="UC00: Ver perfil de usuario" style="rounded=1;whiteSpace=wrap;html=1;" parent="1" vertex="1">
                    <mxGeometry x="570" y="170" width="120" height="60" as="geometry"/>
                </mxCell>
                <mxCell id="22" value="UC00: Establecer tipo de usuario" style="rounded=1;whiteSpace=wrap;html=1;" parent="1" vertex="1">
                    <mxGeometry x="370" y="350" width="120" height="60" as="geometry"/>
                </mxCell>
                <mxCell id="84" style="edgeStyle=none;html=1;dashed=1;startArrow=none;startFill=0;endArrow=open;endFill=0;sourcePerimeterSpacing=0;" parent="1" source="24" target="19" edge="1">
                    <mxGeometry relative="1" as="geometry"/>
                </mxCell>
                <mxCell id="24" value="UC00: Editar perfil de usuario" style="rounded=1;whiteSpace=wrap;html=1;" parent="1" vertex="1">
                    <mxGeometry x="775" y="170" width="120" height="60" as="geometry"/>
                </mxCell>
                <mxCell id="80" style="edgeStyle=none;html=1;dashed=1;startArrow=none;startFill=0;endArrow=open;endFill=0;sourcePerimeterSpacing=0;" parent="1" source="26" target="9" edge="1">
                    <mxGeometry relative="1" as="geometry"/>
                </mxCell>
                <mxCell id="26" value="UC00: Cambiar contraseña" style="rounded=1;whiteSpace=wrap;html=1;" parent="1" vertex="1">
                    <mxGeometry x="170" y="40" width="120" height="60" as="geometry"/>
                </mxCell>
                <mxCell id="90" style="edgeStyle=none;html=1;dashed=1;startArrow=none;startFill=0;endArrow=open;endFill=0;sourcePerimeterSpacing=0;" parent="1" source="31" target="22" edge="1">
                    <mxGeometry relative="1" as="geometry"/>
                </mxCell>
                <mxCell id="91" style="edgeStyle=none;html=1;dashed=1;startArrow=none;startFill=0;endArrow=open;endFill=0;sourcePerimeterSpacing=0;" parent="1" source="31" target="37" edge="1">
                    <mxGeometry relative="1" as="geometry"/>
                </mxCell>
                <mxCell id="31" value="UC00: Establecer plan de cupo de usuarios" style="rounded=1;whiteSpace=wrap;html=1;" parent="1" vertex="1">
                    <mxGeometry x="370" y="460" width="120" height="60" as="geometry"/>
                </mxCell>
                <mxCell id="94" style="edgeStyle=none;html=1;dashed=1;startArrow=none;startFill=0;endArrow=open;endFill=0;sourcePerimeterSpacing=0;" parent="1" source="37" target="39" edge="1">
                    <mxGeometry relative="1" as="geometry"/>
                </mxCell>
                <mxCell id="37" value="UC00: Generar orden de pago" style="rounded=1;whiteSpace=wrap;html=1;" parent="1" vertex="1">
                    <mxGeometry x="370" y="710" width="120" height="60" as="geometry"/>
                </mxCell>
                <mxCell id="39" value="UC00: Establecer acuerdo de pago" style="rounded=1;whiteSpace=wrap;html=1;" parent="1" vertex="1">
                    <mxGeometry x="170" y="510" width="120" height="60" as="geometry"/>
                </mxCell>
                <mxCell id="93" style="edgeStyle=none;html=1;dashed=1;startArrow=none;startFill=0;endArrow=open;endFill=0;sourcePerimeterSpacing=0;" parent="1" source="41" target="37" edge="1">
                    <mxGeometry relative="1" as="geometry"/>
                </mxCell>
                <mxCell id="41" value="UC00: Realizar pago" style="rounded=1;whiteSpace=wrap;html=1;" parent="1" vertex="1">
                    <mxGeometry x="370" y="810" width="120" height="60" as="geometry"/>
                </mxCell>
                <mxCell id="43" value="UC00: Establecer Base de usuarios corporativos" style="rounded=1;whiteSpace=wrap;html=1;" parent="1" vertex="1">
                    <mxGeometry x="170" y="630" width="120" height="60" as="geometry"/>
                </mxCell>
                <mxCell id="81" style="edgeStyle=none;html=1;dashed=1;startArrow=none;startFill=0;endArrow=open;endFill=0;sourcePerimeterSpacing=0;" parent="1" source="47" target="9" edge="1">
                    <mxGeometry relative="1" as="geometry"/>
                </mxCell>
                <mxCell id="47" value="UC00: Hacer el curso" style="rounded=1;whiteSpace=wrap;html=1;" parent="1" vertex="1">
                    <mxGeometry x="330" y="40" width="120" height="60" as="geometry"/>
                </mxCell>
                <mxCell id="82" style="edgeStyle=none;html=1;dashed=1;startArrow=none;startFill=0;endArrow=open;endFill=0;sourcePerimeterSpacing=0;" parent="1" source="49" target="9" edge="1">
                    <mxGeometry relative="1" as="geometry"/>
                </mxCell>
                <mxCell id="49" value="UC00: Ver resultado del test MBTI" style="rounded=1;whiteSpace=wrap;html=1;" parent="1" vertex="1">
                    <mxGeometry x="490" y="40" width="120" height="60" as="geometry"/>
                </mxCell>
                <mxCell id="55" style="edgeStyle=none;html=1;endArrow=none;endFill=0;" parent="1" source="52" target="54" edge="1">
                    <mxGeometry relative="1" as="geometry"/>
                </mxCell>
                <mxCell id="57" style="edgeStyle=none;html=1;endArrow=none;endFill=0;" parent="1" source="52" target="56" edge="1">
                    <mxGeometry relative="1" as="geometry"/>
                </mxCell>
                <mxCell id="rZUXxs78r7aKgY_OuF1J-99" style="edgeStyle=none;html=1;startArrow=none;startFill=0;endArrow=none;endFill=0;sourcePerimeterSpacing=0;" parent="1" source="52" target="T37bJehWPXh67WYYliuX-95" edge="1">
                    <mxGeometry relative="1" as="geometry"/>
                </mxCell>
                <mxCell id="52" value="Sistema" style="shape=umlActor;verticalLabelPosition=bottom;verticalAlign=top;html=1;outlineConnect=0;" parent="1" vertex="1">
                    <mxGeometry x="1030" y="500" width="30" height="60" as="geometry"/>
                </mxCell>
                <mxCell id="60" style="edgeStyle=none;html=1;endArrow=none;endFill=0;" parent="1" source="53" target="59" edge="1">
                    <mxGeometry relative="1" as="geometry"/>
                </mxCell>
                <mxCell id="61" style="edgeStyle=none;html=1;endArrow=none;endFill=0;" parent="1" source="53" target="58" edge="1">
                    <mxGeometry relative="1" as="geometry"/>
                </mxCell>
                <mxCell id="rZUXxs78r7aKgY_OuF1J-101" style="edgeStyle=none;html=1;startArrow=none;startFill=0;endArrow=none;endFill=0;sourcePerimeterSpacing=0;" parent="1" source="53" target="rZUXxs78r7aKgY_OuF1J-100" edge="1">
                    <mxGeometry relative="1" as="geometry"/>
                </mxCell>
                <mxCell id="rZUXxs78r7aKgY_OuF1J-109" style="edgeStyle=none;html=1;startArrow=none;startFill=0;endArrow=none;endFill=0;sourcePerimeterSpacing=0;" parent="1" source="53" target="rZUXxs78r7aKgY_OuF1J-108" edge="1">
                    <mxGeometry relative="1" as="geometry"/>
                </mxCell>
                <mxCell id="53" value="Administrador" style="shape=umlActor;verticalLabelPosition=bottom;verticalAlign=top;html=1;outlineConnect=0;" parent="1" vertex="1">
                    <mxGeometry x="1020" y="1050" width="30" height="60" as="geometry"/>
                </mxCell>
                <mxCell id="54" value="UC00: Generar Notificación" style="rounded=1;whiteSpace=wrap;html=1;" parent="1" vertex="1">
                    <mxGeometry x="775" y="500" width="120" height="60" as="geometry"/>
                </mxCell>
                <mxCell id="56" value="UC00: Hacer Log de actividades" style="rounded=1;whiteSpace=wrap;html=1;" parent="1" vertex="1">
                    <mxGeometry x="775" y="585" width="120" height="60" as="geometry"/>
                </mxCell>
                <mxCell id="58" value="UC00: Subir Resultados de evaluación MBTI" style="rounded=1;whiteSpace=wrap;html=1;" parent="1" vertex="1">
                    <mxGeometry x="765" y="1160" width="120" height="60" as="geometry"/>
                </mxCell>
                <mxCell id="59" value="UC00: Descargar lista de usuarios" style="rounded=1;whiteSpace=wrap;html=1;" parent="1" vertex="1">
                    <mxGeometry x="765" y="1050" width="120" height="60" as="geometry"/>
                </mxCell>
                <mxCell id="65" style="edgeStyle=none;html=1;endArrow=none;endFill=0;sourcePerimeterSpacing=30;startArrow=block;startFill=0;" parent="1" source="62" target="53" edge="1">
                    <mxGeometry relative="1" as="geometry"/>
                </mxCell>
                <mxCell id="62" value="Usuario" style="shape=umlActor;verticalLabelPosition=bottom;verticalAlign=top;html=1;outlineConnect=0;" parent="1" vertex="1">
                    <mxGeometry x="1020" y="900" width="30" height="60" as="geometry"/>
                </mxCell>
                <mxCell id="T37bJehWPXh67WYYliuX-95" value="UC00: Generar enlace de recuperación de contraseña" style="rounded=1;whiteSpace=wrap;html=1;" parent="1" vertex="1">
                    <mxGeometry x="775" y="670" width="120" height="60" as="geometry"/>
                </mxCell>
                <mxCell id="rZUXxs78r7aKgY_OuF1J-96" style="edgeStyle=none;html=1;startArrow=none;startFill=0;endArrow=open;endFill=0;sourcePerimeterSpacing=0;dashed=1;" parent="1" source="rZUXxs78r7aKgY_OuF1J-95" target="9" edge="1">
                    <mxGeometry relative="1" as="geometry"/>
                </mxCell>
                <mxCell id="rZUXxs78r7aKgY_OuF1J-95" value="UC00: Hacer evaluación curso" style="rounded=1;whiteSpace=wrap;html=1;" parent="1" vertex="1">
                    <mxGeometry x="775" y="40" width="120" height="60" as="geometry"/>
                </mxCell>
                <mxCell id="rZUXxs78r7aKgY_OuF1J-98" style="edgeStyle=none;html=1;startArrow=none;startFill=0;endArrow=open;endFill=0;sourcePerimeterSpacing=0;dashed=1;" parent="1" source="rZUXxs78r7aKgY_OuF1J-97" target="9" edge="1">
                    <mxGeometry relative="1" as="geometry"/>
                </mxCell>
                <mxCell id="rZUXxs78r7aKgY_OuF1J-97" value="UC00: Descargar certificado" style="rounded=1;whiteSpace=wrap;html=1;" parent="1" vertex="1">
                    <mxGeometry x="930" y="90" width="120" height="60" as="geometry"/>
                </mxCell>
                <mxCell id="rZUXxs78r7aKgY_OuF1J-100" value="UC00: Ver listado de usuarios" style="rounded=1;whiteSpace=wrap;html=1;" parent="1" vertex="1">
                    <mxGeometry x="765" y="1290" width="120" height="60" as="geometry"/>
                </mxCell>
                <mxCell id="rZUXxs78r7aKgY_OuF1J-102" value="UC00: Cambiar Roles" style="rounded=1;whiteSpace=wrap;html=1;" parent="1" vertex="1">
                    <mxGeometry x="310" y="1290" width="120" height="60" as="geometry"/>
                </mxCell>
                <mxCell id="rZUXxs78r7aKgY_OuF1J-105" style="edgeStyle=none;html=1;dashed=1;startArrow=none;startFill=0;endArrow=open;endFill=0;sourcePerimeterSpacing=0;" parent="1" source="rZUXxs78r7aKgY_OuF1J-106" target="rZUXxs78r7aKgY_OuF1J-100" edge="1">
                    <mxGeometry relative="1" as="geometry">
                        <mxPoint x="420" y="820" as="sourcePoint"/>
                        <mxPoint x="420" y="1010" as="targetPoint"/>
                        <Array as="points"/>
                    </mxGeometry>
                </mxCell>
                <mxCell id="rZUXxs78r7aKgY_OuF1J-106" value="UC00: Ver estado de usuario" style="rounded=1;whiteSpace=wrap;html=1;" parent="1" vertex="1">
                    <mxGeometry x="540" y="1290" width="120" height="60" as="geometry"/>
                </mxCell>
                <mxCell id="rZUXxs78r7aKgY_OuF1J-107" style="edgeStyle=none;html=1;dashed=1;startArrow=none;startFill=0;endArrow=open;endFill=0;sourcePerimeterSpacing=0;" parent="1" source="rZUXxs78r7aKgY_OuF1J-102" target="rZUXxs78r7aKgY_OuF1J-106" edge="1">
                    <mxGeometry relative="1" as="geometry">
                        <mxPoint x="450" y="1360" as="sourcePoint"/>
                        <mxPoint x="545" y="1360" as="targetPoint"/>
                        <Array as="points"/>
                    </mxGeometry>
                </mxCell>
                <mxCell id="rZUXxs78r7aKgY_OuF1J-108" value="UC00: Comprobar pagos" style="rounded=1;whiteSpace=wrap;html=1;" parent="1" vertex="1">
                    <mxGeometry x="765" y="940" width="120" height="60" as="geometry"/>
                </mxCell>
            </root>
        </mxGraphModel>
    </diagram>
</mxfile>